<?xml version="1.0" encoding="UTF-8" standalone="no"?>
<!-- Created with Inkscape (http://www.inkscape.org/) -->

<svg
   xmlns:dc="http://purl.org/dc/elements/1.1/"
   xmlns:cc="http://creativecommons.org/ns#"
   xmlns:rdf="http://www.w3.org/1999/02/22-rdf-syntax-ns#"
   xmlns:svg="http://www.w3.org/2000/svg"
   xmlns="http://www.w3.org/2000/svg"
   xmlns:sodipodi="http://sodipodi.sourceforge.net/DTD/sodipodi-0.dtd"
   xmlns:inkscape="http://www.inkscape.org/namespaces/inkscape"
   width="512"
   height="512"
   viewBox="0 0 135.46666 135.46667"
   version="1.1"
   id="svg8"
   inkscape:version="0.92.1 r15371"
   sodipodi:docname="cloud-00.svg"
   inkscape:export-filename="D:\code\old-45-game\assets\static\hill-01.png"
   inkscape:export-xdpi="96"
   inkscape:export-ydpi="96">
  <defs
     id="defs2" />
  <sodipodi:namedview
     id="base"
     pagecolor="#ffffff"
     bordercolor="#666666"
     borderopacity="1.0"
     inkscape:pageopacity="0.0"
     inkscape:pageshadow="2"
     inkscape:zoom="1.9417815"
     inkscape:cx="197.2697"
     inkscape:cy="199.49884"
     inkscape:document-units="px"
     inkscape:current-layer="layer1"
     showgrid="true"
     units="px"
     inkscape:window-width="1920"
     inkscape:window-height="1001"
     inkscape:window-x="-9"
     inkscape:window-y="-9"
     inkscape:window-maximized="1">
    <inkscape:grid
       type="xygrid"
       id="grid4485" />
  </sodipodi:namedview>
  <metadata
     id="metadata5">
    <rdf:RDF>
      <cc:Work
         rdf:about="">
        <dc:format>image/svg+xml</dc:format>
        <dc:type
           rdf:resource="http://purl.org/dc/dcmitype/StillImage" />
        <dc:title></dc:title>
      </cc:Work>
    </rdf:RDF>
  </metadata>
  <g
     inkscape:label="Layer 1"
     inkscape:groupmode="layer"
     id="layer1"
     transform="translate(0,-161.53331)">
    <path
       style="fill:#000076;fill-opacity:1;stroke:#00ff00;stroke-width:0.79374999;stroke-linecap:butt;stroke-linejoin:miter;stroke-miterlimit:4;stroke-dasharray:none;stroke-opacity:1"
       d="M 7.9374999,265.24998 H 113.77083 c 0,0 11.83919,-0.13849 12.95665,-10.66266 0.27252,-2.56651 -2.37331,-10.50401 -7.66498,-13.14984 -9.38422,-3.51427 -17.61231,-4.04851 -21.166668,6.61458 0,0 -3.622032,-12.33742 -11.559536,-17.62909 -7.9375,-5.29167 -6.961297,-4.86049 -14.898797,-4.86049 -7.9375,0 -15.875,5.29166 -21.166666,10.58333 -5.291667,5.29167 -12.627204,18.38457 -12.627204,18.38457 -3.74965,-7.97818 -7.216546,-13.0929 -16.476963,-18.38457 -7.937499,-2.64583 -13.2291661,2.64583 -15.8749994,7.9375 -2.6458333,5.29167 -2.6458333,7.9375 -2.6458333,13.22917 0,5.29166 5.2916666,7.9375 5.2916666,7.9375 z"
       id="path7383"
       inkscape:connector-curvature="0"
       sodipodi:nodetypes="ccsccsssccssc" />
  </g>
</svg>
