<?xml version="1.0" encoding="UTF-8" standalone="no"?>
<!-- Created with Inkscape (http://www.inkscape.org/) -->

<svg
   xmlns:dc="http://purl.org/dc/elements/1.1/"
   xmlns:cc="http://creativecommons.org/ns#"
   xmlns:rdf="http://www.w3.org/1999/02/22-rdf-syntax-ns#"
   xmlns:svg="http://www.w3.org/2000/svg"
   xmlns="http://www.w3.org/2000/svg"
   xmlns:sodipodi="http://sodipodi.sourceforge.net/DTD/sodipodi-0.dtd"
   xmlns:inkscape="http://www.inkscape.org/namespaces/inkscape"
   width="256"
   height="256"
   viewBox="0 0 67.733332 67.733335"
   version="1.1"
   id="svg8"
   inkscape:version="0.92.1 r15371"
   sodipodi:docname="fence-01.svg"
   inkscape:export-filename="D:\code\old-45-game\assets\static\fence-01.png"
   inkscape:export-xdpi="96"
   inkscape:export-ydpi="96">
  <defs
     id="defs2" />
  <sodipodi:namedview
     id="base"
     pagecolor="#ffffff"
     bordercolor="#666666"
     borderopacity="1.0"
     inkscape:pageopacity="0.0"
     inkscape:pageshadow="2"
     inkscape:zoom="1.9417815"
     inkscape:cx="262.89963"
     inkscape:cy="144.93845"
     inkscape:document-units="px"
     inkscape:current-layer="layer1"
     showgrid="true"
     units="px"
     inkscape:window-width="1920"
     inkscape:window-height="1001"
     inkscape:window-x="-9"
     inkscape:window-y="-9"
     inkscape:window-maximized="1">
    <inkscape:grid
       type="xygrid"
       id="grid4485" />
  </sodipodi:namedview>
  <metadata
     id="metadata5">
    <rdf:RDF>
      <cc:Work
         rdf:about="">
        <dc:format>image/svg+xml</dc:format>
        <dc:type
           rdf:resource="http://purl.org/dc/dcmitype/StillImage" />
        <dc:title></dc:title>
      </cc:Work>
    </rdf:RDF>
  </metadata>
  <g
     inkscape:label="Layer 1"
     inkscape:groupmode="layer"
     id="layer1"
     transform="translate(0,-229.26665)">
    <path
       style="fill:#0000a8;fill-opacity:1;stroke:#00ff00;stroke-width:0.66500002;stroke-linecap:butt;stroke-linejoin:round;stroke-miterlimit:4;stroke-dasharray:none;stroke-opacity:1"
       d="m 7.9375,253.34374 v 6.61458 c 0,0 2.645834,0 2.645834,10.58333 0,10.58334 -2.645834,10.58334 -2.645834,10.58334 v 10.58333 h 10.583334 v -10.58333 c 0,0 -2.645834,-1e-5 -2.645834,-10.58334 0,-10.58333 2.645834,-10.58333 2.645834,-10.58333 v -6.61458 z"
       id="path4487"
       inkscape:connector-curvature="0"
       sodipodi:nodetypes="cczcccczccc" />
    <path
       style="fill:#0000a8;fill-opacity:1;stroke:#00ff00;stroke-width:0.66499996;stroke-linecap:butt;stroke-linejoin:round;stroke-miterlimit:4;stroke-dasharray:none;stroke-opacity:1"
       d="m 21.166667,253.34374 v 6.61458 c 0,0 2.645833,0 2.645833,10.58333 0,10.58334 -2.645833,10.58334 -2.645833,10.58334 v 10.58333 h 10.583334 v -10.58333 c 0,0 -2.645835,-1e-5 -2.645835,-10.58334 0,-10.58333 2.645835,-10.58333 2.645835,-10.58333 v -6.61458 z"
       id="path4487-6"
       inkscape:connector-curvature="0"
       sodipodi:nodetypes="cczcccczccc" />
    <path
       style="fill:#0000a8;fill-opacity:1;stroke:#00ff00;stroke-width:0.66499996;stroke-linecap:butt;stroke-linejoin:round;stroke-miterlimit:4;stroke-dasharray:none;stroke-opacity:1"
       d="m 34.395834,253.34374 v 6.61458 c 0,0 2.645833,0 2.645833,10.58333 0,10.58334 -2.645833,10.58334 -2.645833,10.58334 v 10.58333 h 10.583334 v -10.58333 c 0,0 -2.645835,-1e-5 -2.645835,-10.58334 0,-10.58333 2.645835,-10.58333 2.645835,-10.58333 v -6.61458 z"
       id="path4487-0"
       inkscape:connector-curvature="0"
       sodipodi:nodetypes="cczcccczccc" />
    <path
       style="fill:#0000a8;fill-opacity:1;stroke:#00ff00;stroke-width:0.6649999;stroke-linecap:butt;stroke-linejoin:round;stroke-miterlimit:4;stroke-dasharray:none;stroke-opacity:1"
       d="m 47.625,253.34374 v 6.61458 c 0,0 2.645833,0 2.645833,10.58333 0,10.58334 -2.645833,10.58334 -2.645833,10.58334 v 10.58333 h 10.583333 v -10.58333 c 0,0 -2.645835,-1e-5 -2.645835,-10.58334 0,-10.58333 2.645835,-10.58333 2.645835,-10.58333 v -6.61458 z"
       id="path4487-6-4"
       inkscape:connector-curvature="0"
       sodipodi:nodetypes="cczcccczccc" />
    <rect
       style="fill:#0000a8;fill-opacity:1;fill-rule:nonzero;stroke:#00ff00;stroke-width:0.66499996;stroke-linecap:round;stroke-linejoin:round;stroke-miterlimit:4;stroke-dasharray:none;stroke-opacity:1"
       id="rect4539"
       width="2.6458333"
       height="43.65625"
       x="2.6458333"
       y="250.69791" />
    <rect
       style="fill:#0000a8;fill-opacity:1;fill-rule:nonzero;stroke:#00ff00;stroke-width:0.66499996;stroke-linecap:round;stroke-linejoin:round;stroke-miterlimit:4;stroke-dasharray:none;stroke-opacity:1"
       id="rect4541"
       width="2.6458333"
       height="43.65625"
       x="62.177082"
       y="250.69791" />
    <rect
       style="fill:#0000a8;fill-opacity:1;fill-rule:nonzero;stroke:#00ff00;stroke-width:0.66499996;stroke-linecap:round;stroke-linejoin:round;stroke-miterlimit:4;stroke-dasharray:none;stroke-opacity:1"
       id="rect4537"
       width="66.145836"
       height="3.96875"
       x="1.3229166"
       y="248.05206"
       ry="0" />
  </g>
</svg>
